<svg fill="none" width="850" height="270" xmlns="http://www.w3.org/2000/svg"><g transform="translate(399.4,94.8)">

<svg width="321" height="142" version="1.1" xmlns="http://www.w3.org/2000/svg" xmlns:xlink="http://www.w3.org/1999/xlink" xml:space="preserve" xmlns:serif="http://www.serif.com/" style="fill-rule:evenodd;clip-rule:evenodd;stroke-linecap:round;stroke-linejoin:round;stroke-miterlimit:1.5;">
    <g id="torso" transform="matrix(1,0,0,1,-392.503,-81.9195)">
        <path d="M677.585,207.048C677.585,207.048 703.443,209.585 709.442,197.425C717.636,180.817 709.091,177.326 709.091,177.326C709.091,177.326 670.906,159.032 685.935,134.878C697.023,117.058 695.214,111.183 693.457,105.081C691.7,98.979 684.017,96.998 675.394,98.267C669.198,99.178 662.43,103.995 655.97,102.515C648.95,100.905 638.29,92.729 633.271,88.612C626.042,82.681 609.056,80.826 598.899,83.851C576.112,90.639 493.862,127.227 493.862,127.227L487.107,128.544C487.107,128.544 476.052,131.901 470.406,129.998C455.184,124.866 392.238,148.083 397.486,163.996C398.37,166.879 399.123,171.571 398.233,173.642C394.587,182.133 386.539,221.321 402.841,222.447C420.223,223.647 465.406,217.641 539.024,209.907C578.669,205.742 568.795,205.257 583.719,204.95C606.781,204.476 652.21,205.211 677.585,207.048Z" style="fill:rgb(246,185,133);stroke:black;stroke-width:1px;"/>
    </g>
</svg>
</g><g transform="translate(336.1,26.5)">

<svg width="142" height="165" version="1.1" xmlns="http://www.w3.org/2000/svg" xmlns:xlink="http://www.w3.org/1999/xlink" xml:space="preserve" xmlns:serif="http://www.serif.com/" style="fill-rule:evenodd;clip-rule:evenodd;stroke-linecap:round;stroke-linejoin:round;stroke-miterlimit:1.5;">
    <g id="right-leg" serif:id="right leg" transform="matrix(1,0,0,1,-329.266,-13.5809)">
        <path d="M470.406,129.998C466.22,128.62 461.607,125.733 457.01,120.272C442.05,102.495 443.634,91.055 417.761,61.31C391.889,31.566 393.473,29.982 385.025,23.294C376.577,16.605 367.986,8.854 347.36,18.893C337.061,23.906 332.858,32.212 331.574,39.763C330.128,48.262 329.445,57.68 329.911,58.518C330.261,59.147 329.73,79.028 330.644,102.039C331.187,115.732 333.303,127.85 334.269,141.297C335.125,153.217 334.641,163.693 334.713,164.465C336.831,187.153 367.161,173.406 367.161,173.406C367.161,173.406 367.99,128.759 371.038,123.559C376.636,114.005 373.037,89.994 360.272,71.463C358.379,68.714 360.397,71.745 360.488,71.867C370.544,85.378 375.155,106.164 373.576,114.277C373.16,116.416 392.389,146.723 397.486,163.996" style="fill:rgb(246,185,133);stroke:black;stroke-width:1px;"/>
    </g>
</svg>
</g><g transform="translate(47.7,175.4)">

<svg width="394" height="63" version="1.1" xmlns="http://www.w3.org/2000/svg" xmlns:xlink="http://www.w3.org/1999/xlink" xml:space="preserve" xmlns:serif="http://www.serif.com/" style="fill-rule:evenodd;clip-rule:evenodd;stroke-linecap:round;stroke-linejoin:round;stroke-miterlimit:1.5;">
    <g id="left-leg" serif:id="left leg" transform="matrix(1,0,0,1,-40.8625,-162.481)">
        <path d="M402.841,222.447C402.841,222.447 368.032,226.255 342.913,217.92C317.794,209.584 291.818,214.189 271.578,217.929C251.338,221.669 155.965,217.544 146.841,216.6C132.401,215.105 111.192,222.783 80.249,224.597C68.98,225.258 58.504,218.749 53.505,213.892C48.505,209.035 43.906,191.569 41.983,187.522C40.06,183.474 42.261,175.629 53.52,178.455C69.773,182.535 103.56,194.292 135.274,194.178C159.746,194.091 183.167,191.918 222.838,183.76C256.819,176.773 255.051,178.198 270.386,175.215C284.457,172.478 288.522,168.666 303.079,165.848C318.46,162.871 329.695,161.516 356.096,165.256C377.754,168.324 399.809,162.767 420.405,168.814C424.915,170.138 429.354,171.854 433.705,174.102" style="fill:rgb(246,185,133);stroke:black;stroke-width:1px;"/>
    </g>
</svg>
</g><g transform="translate(683.9,137.3)">

<svg width="125" height="103" version="1.1" xmlns="http://www.w3.org/2000/svg" xmlns:xlink="http://www.w3.org/1999/xlink" xml:space="preserve" xmlns:serif="http://www.serif.com/" style="fill-rule:evenodd;clip-rule:evenodd;stroke-linecap:round;stroke-linejoin:round;stroke-miterlimit:1.5;">
    <g id="left-arm" serif:id="left arm" transform="matrix(1,0,0,1,-677.085,-124.38)">
        <path d="M696.642,169.364C696.642,169.364 704.604,175.223 709.091,177.326C718.591,181.777 730.805,186.113 732.745,188.016C736.183,191.39 737.362,193.26 748.272,205.531C749.133,206.5 748.46,205.677 748.272,205.531C745.934,203.729 733.798,189.258 733.798,189.258C733.798,189.258 725.647,172.504 718.705,164.069C711.762,155.635 698.302,135.677 694.513,132.355C690.723,129.033 715.171,124.88 715.171,124.88C715.171,124.88 719.662,134.072 743.587,150.292C767.512,166.513 771.162,174.927 782.618,187.498C794.073,200.069 794.175,203.212 798.838,208.686C803.502,214.161 802.386,226.326 791.032,225.921C779.678,225.515 773.073,222.458 762.288,220.875C759.15,220.415 761.275,222.092 742.722,220.064C724.17,218.037 710.382,209.424 677.585,207.048" style="fill:rgb(246,185,133);stroke:black;stroke-width:1px;"/>
    </g>
</svg>
</g><g transform="translate(490.9,80.9)">

<svg width="150" height="136" version="1.1" xmlns="http://www.w3.org/2000/svg" xmlns:xlink="http://www.w3.org/1999/xlink" xml:space="preserve" xmlns:serif="http://www.serif.com/" style="fill-rule:evenodd;clip-rule:evenodd;stroke-linecap:round;stroke-linejoin:round;stroke-miterlimit:1.5;">
    <g id="right-arm" serif:id="right arm" transform="matrix(1,0,0,1,-484.036,-67.9815)">
        <path d="M633.271,88.612L614.104,73.563C614.104,73.563 605.392,62.792 583.532,72.613C561.672,82.434 563.256,85.602 534.11,95.423C504.964,105.244 500.687,109.363 496.093,113.006C491.499,116.649 479.119,123.079 487.223,143.261C498.913,172.376 534.269,202.821 534.269,202.821C544.112,200.81 552.668,197.732 559.517,193.885C559.517,193.885 546.183,184.929 534.585,151.023C523.232,117.832 526.665,125.203 526.665,125.203L530.383,137.135C530.383,137.135 548.592,133.939 584.582,102.633" style="fill:rgb(246,185,133);stroke:black;stroke-width:1px;"/>
    </g>
</svg>
</g><g transform="translate(654.3,51.7)">

<svg width="86" height="90" version="1.1" xmlns="http://www.w3.org/2000/svg" xmlns:xlink="http://www.w3.org/1999/xlink" xml:space="preserve" xmlns:serif="http://www.serif.com/" style="fill-rule:evenodd;clip-rule:evenodd;stroke-linecap:round;stroke-linejoin:round;stroke-miterlimit:1.5;">
    <g id="head" transform="matrix(1,0,0,1,-647.48,-38.8317)">
        <path d="M666.793,62.581C661.555,70.578 655.014,81.011 651.848,90.053C650.058,95.166 648.959,100.524 648.181,105.885C647.795,108.549 648.023,111.291 648.382,113.959C648.751,116.694 649.219,119.484 650.352,122C654.19,130.517 669.425,127.238 675.924,125.461C694.993,120.247 709.151,108.962 721.295,93.587C729.829,82.782 737.069,70.194 728.239,53.804C724.052,46.033 715.038,41.781 710.331,40.508C705.383,39.169 700.304,38.931 695.277,40.013C682.889,42.68 673.481,52.37 666.793,62.581Z" style="fill:rgb(246,185,133);stroke:black;stroke-width:1px;"/>
    </g>
</svg>
</g><g transform="translate(403.9,124.9)">

<svg width="95" height="110" version="1.1" xmlns="http://www.w3.org/2000/svg" xmlns:xlink="http://www.w3.org/1999/xlink" xml:space="preserve" xmlns:serif="http://www.serif.com/" style="fill-rule:evenodd;clip-rule:evenodd;stroke-linecap:round;stroke-linejoin:round;stroke-miterlimit:1.5;">
    <g id="underwear-1" serif:id="underwear 1" transform="matrix(1,0,0,1,-413.425,-124.427)">
        <path d="M500.683,149.774C499.656,174.362 507.633,227.762 507.633,227.762C507.633,227.762 481.289,230.484 446.285,233.906C449.276,221.603 451.828,188.28 421.683,178.721C422.561,178.819 418.737,178.08 414.188,178.116C414.164,177.596 413.883,177.221 413.93,176.854C429.476,172.679 443.13,158.052 453.596,145.819C462.005,135.991 469.136,128.196 467.642,124.927C482.644,147.57 493.223,143.741 500.421,142.08C500.42,142.099 500.425,142.129 500.425,142.171C500.427,144.722 500.483,148.828 500.683,149.774Z" style="fill:#87bcc2;"/>
        <clipPath id="_clip1_mhpww">
            <path d="M500.683,149.774C499.656,174.362 507.633,227.762 507.633,227.762C507.633,227.762 481.289,230.484 446.285,233.906C449.276,221.603 451.828,188.28 421.683,178.721C422.561,178.819 418.737,178.08 414.188,178.116C414.164,177.596 413.883,177.221 413.93,176.854C429.476,172.679 443.13,158.052 453.596,145.819C462.005,135.991 469.136,128.196 467.642,124.927C482.644,147.57 493.223,143.741 500.421,142.08C500.42,142.099 500.425,142.129 500.425,142.171C500.427,144.722 500.483,148.828 500.683,149.774Z"/>
        </clipPath>
        <g clip-path="url(#_clip1_mhpww)">
            <g id="dots" transform="matrix(0.98228,0.187417,-0.160596,0.841706,423.018,126.902)">
                <g transform="matrix(1,0,0,1,-3.5039,-8.64713)">
                    <circle cx="75.741" cy="16.03" r="7.517" style="fill:#78433d;"/>
                </g>
                <g transform="matrix(1,0,0,1,4.54709,20.5905)">
                    <circle cx="75.741" cy="16.03" r="7.517" style="fill:#78433d;"/>
                </g>
                <g transform="matrix(1,0,0,1,-19.2223,13.7302)">
                    <circle cx="75.741" cy="16.03" r="7.517" style="fill:#78433d;"/>
                </g>
                <g transform="matrix(0.921494,0.453258,-0.332809,0.921494,-18.2604,-46.3423)">
                    <circle cx="75.741" cy="16.03" r="7.517" style="fill:#78433d;"/>
                </g>
                <g transform="matrix(0.970025,0.283589,-0.208228,0.970025,-38.0864,-12.4155)">
                    <circle cx="75.741" cy="16.03" r="7.517" style="fill:#78433d;"/>
                </g>
                <g transform="matrix(0.862259,-0.591054,0.433987,0.862259,-28.2258,79.6975)">
                    <circle cx="75.741" cy="16.03" r="7.517" style="fill:#78433d;"/>
                </g>
                <g transform="matrix(0.982324,0.218451,-0.1604,0.982324,-4.35281,26.7286)">
                    <circle cx="75.741" cy="16.03" r="7.517" style="fill:#78433d;"/>
                </g>
                <g transform="matrix(0.937207,0.407023,-0.298861,0.937207,-18.6236,33.8569)">
                    <circle cx="75.741" cy="16.03" r="7.517" style="fill:#78433d;"/>
                </g>
                <g transform="matrix(1.06663,8.32667e-17,5.55112e-17,1.04739,-4.80081,67.4352)">
                    <circle cx="75.741" cy="16.03" r="7.517" style="fill:#78433d;"/>
                </g>
                <g transform="matrix(1.11278,0,4.8289e-17,0.869898,-35.0187,93.694)">
                    <circle cx="75.741" cy="16.03" r="7.517" style="fill:#78433d;"/>
                </g>
                <g transform="matrix(1,0,0,1,-1.23572,93.0907)">
                    <circle cx="75.741" cy="16.03" r="7.517" style="fill:#78433d;"/>
                </g>
                <g transform="matrix(1,0,0,1,-55.303,37.9826)">
                    <circle cx="75.741" cy="16.03" r="7.517" style="fill:#78433d;"/>
                </g>
            </g>
            <path id="bolge" d="M413.248,178.215C413.248,178.215 451.374,181.752 468.441,196.172" style="fill:none;stroke:black;stroke-opacity:0.5;stroke-width:1px;"/>
            <g id="midi" transform="matrix(1,0,0,1,-2.0983,0.227866)">
                <path d="M495.839,140.588C492.108,160.984 495.989,193.686 500.734,230.681L515.816,230.284L507.349,135.561L495.839,140.588Z" style="fill:#78433d;stroke:black;stroke-width:1px;"/>
            </g>
            <g transform="matrix(1,0,0,1,413.425,124.427)">
                <rect x="-9.072" y="-4.834" width="122.885" height="124.773" style="fill:rgb(123,123,123);fill-opacity:0.5;"/>
            </g>
        </g>
        <path d="M500.683,149.774C499.656,174.362 507.633,227.762 507.633,227.762C507.633,227.762 481.289,230.484 446.285,233.906C449.276,221.603 451.828,188.28 421.683,178.721C422.561,178.819 418.737,178.08 414.188,178.116C414.164,177.596 413.883,177.221 413.93,176.854C429.476,172.679 443.13,158.052 453.596,145.819C462.005,135.991 469.136,128.196 467.642,124.927C482.644,147.57 493.223,143.741 500.421,142.08C500.42,142.099 500.425,142.129 500.425,142.171C500.427,144.722 500.483,148.828 500.683,149.774Z" style="fill:none;stroke:black;stroke-width:1px;"/>
    </g>
</svg>
</g><g transform="translate(46.7,146.3)">

<svg width="331" height="93" version="1.1" xmlns="http://www.w3.org/2000/svg" xmlns:xlink="http://www.w3.org/1999/xlink" xml:space="preserve" xmlns:serif="http://www.serif.com/" style="fill-rule:evenodd;clip-rule:evenodd;stroke-linecap:round;stroke-linejoin:round;stroke-miterlimit:2;">
    <g transform="matrix(1,0,0,1,-51.2244,-153.195)">
        <path d="M344.017,153.695C352.395,155.203 359.602,156.928 380.901,155.928C381.815,167.894 379.634,167.69 379.544,185.714C376.408,185.621 371.454,185.469 366.758,184.842C357.017,183.542 345.336,182.74 345.336,182.74C345.336,182.74 344.589,163.629 344.017,153.695Z" style="fill:rgb(255,163,34);stroke:black;stroke-width:1px;"/>
    </g>
    <g transform="matrix(1,0,0,1,-61.1737,-147.134)">
        <path d="M184.608,206.225C176.613,214.664 179.3,228.193 183.667,231.303C174.594,231.103 163.326,231.401 152.185,232.089C151.377,232.97 150.174,232.944 148.079,232.404C131.077,234.038 110.937,239.832 99.371,239.124C72.744,237.495 66.298,216.62 61.976,199.26C60.181,192.048 66.376,187.323 80.852,192.132C87.158,194.227 119.304,205.049 149.047,205.678C151.816,205.258 151.046,206.58 151.402,206.613C151.708,206.641 152.015,206.668 152.323,206.696C160.999,207.471 173.92,205.819 184.608,206.225Z" style="fill:white;stroke:black;stroke-width:1px;"/>
    </g>
</svg>
</g><g transform="translate(147.5,21.8)">

<svg width="362" height="222" version="1.1" xmlns="http://www.w3.org/2000/svg" xmlns:xlink="http://www.w3.org/1999/xlink" xml:space="preserve" xmlns:serif="http://www.serif.com/" style="fill-rule:evenodd;clip-rule:evenodd;stroke-linecap:round;stroke-linejoin:round;stroke-miterlimit:1.5;">
    <g id="pants-right-leg" serif:id="pants right leg" transform="matrix(1,0,0,1,-156.164,-21.7929)">
        <path d="M467.957,122.968C451.688,91.899 432.123,64.081 407.77,38.964C396.186,27.016 380.204,17.892 363.47,25.458C349.936,31.577 347.403,41.575 344.203,55.24C341.534,66.637 343.192,78.004 343.948,89.512C344.599,99.406 344.956,109.718 345.121,119.644C345.309,130.923 345.368,130.706 346.179,142.004C346.441,145.644 346.087,149.328 346.563,152.946C346.652,153.625 346.565,157.968 347.101,158.396C347.101,158.396 346.577,183.325 347.875,184.929C348.744,186.003 348.917,191.604 349.145,192.231C359.548,196.707 379.479,195.072 381.947,191.729C382.438,191.433 382.091,186.559 383.379,184.993C384.177,184.021 389.673,148.743 390.729,141.074C391.208,137.594 391.14,133.968 392.306,130.655C391.488,133.714 390.498,136.768 390.212,139.922C389.952,142.784 392.528,146.739 393.535,148.954C397.444,157.554 403.113,165.203 407.131,173.704C418.717,173.905 427.644,173.405 427.644,173.405" style="fill:rgb(202,180,137);"/>
        <clipPath id="_clip1_rf6zc">
            <path d="M467.957,122.968C451.688,91.899 432.123,64.081 407.77,38.964C396.186,27.016 380.204,17.892 363.47,25.458C349.936,31.577 347.403,41.575 344.203,55.24C341.534,66.637 343.192,78.004 343.948,89.512C344.599,99.406 344.956,109.718 345.121,119.644C345.309,130.923 345.368,130.706 346.179,142.004C346.441,145.644 346.087,149.328 346.563,152.946C346.652,153.625 346.565,157.968 347.101,158.396C347.101,158.396 346.577,183.325 347.875,184.929C348.744,186.003 348.917,191.604 349.145,192.231C359.548,196.707 379.479,195.072 381.947,191.729C382.438,191.433 382.091,186.559 383.379,184.993C384.177,184.021 389.673,148.743 390.729,141.074C391.208,137.594 391.14,133.968 392.306,130.655C391.488,133.714 390.498,136.768 390.212,139.922C389.952,142.784 392.528,146.739 393.535,148.954C397.444,157.554 403.113,165.203 407.131,173.704C418.717,173.905 427.644,173.405 427.644,173.405"/>
        </clipPath>
        <g clip-path="url(#_clip1_rf6zc)">
            <g opacity="0.25">
                <g transform="matrix(1,0,0,1,156.164,21.7929)">
                    <path d="M236.753,93.898C234.78,94.983 245.679,143.373 253.179,151.469C226.791,154.746 235.007,122.911 235.007,122.911L235.007,112.189L236.753,93.898Z" style="fill:rgb(3,3,3);stroke:black;stroke-width:1px;"/>
                </g>
                <g transform="matrix(1,0,0,1,156.164,21.7929)">
                    <path d="M236.042,100.941C233.787,101.317 241.544,78.175 231.211,61.525" style="fill:none;stroke:black;stroke-width:1px;"/>
                </g>
                <path d="M387.155,62.981L392.495,101.205" style="fill:none;stroke:black;stroke-width:1px;stroke-miterlimit:2;"/>
                <g transform="matrix(1,0,0,1,2.31754,-3.18662)">
                    <path d="M399.522,169.504C399.522,169.504 408.891,197.115 410.015,140.621" style="fill:none;stroke:black;stroke-width:1px;stroke-miterlimit:2;"/>
                </g>
                <g transform="matrix(1,0,0,1,-1.44846,-0.289692)">
                    <path d="M374.681,58.483C385.989,67.44 389.857,80.991 393.97,96.664" style="fill:none;stroke:black;stroke-width:1px;stroke-miterlimit:2;"/>
                </g>
                <g transform="matrix(1,0,0,1,156.164,21.7929)">
                    <path d="M191.29,162.559C191.29,162.559 211.949,166.767 232.799,160.933" style="fill:none;stroke:black;stroke-width:1px;"/>
                </g>
            </g>
        </g>
        <path d="M467.957,122.968C451.688,91.899 432.123,64.081 407.77,38.964C396.186,27.016 380.204,17.892 363.47,25.458C349.936,31.577 347.403,41.575 344.203,55.24C341.534,66.637 343.192,78.004 343.948,89.512C344.599,99.406 344.956,109.718 345.121,119.644C345.309,130.923 345.368,130.706 346.179,142.004C346.441,145.644 346.087,149.328 346.563,152.946C346.652,153.625 346.565,157.968 347.101,158.396C347.101,158.396 346.577,183.325 347.875,184.929C348.744,186.003 348.917,191.604 349.145,192.231C359.548,196.707 379.479,195.072 381.947,191.729C382.438,191.433 382.091,186.559 383.379,184.993C384.177,184.021 389.673,148.743 390.729,141.074C391.208,137.594 391.14,133.968 392.306,130.655C391.488,133.714 390.498,136.768 390.212,139.922C389.952,142.784 392.528,146.739 393.535,148.954C397.444,157.554 403.113,165.203 407.131,173.704C418.717,173.905 427.644,173.405 427.644,173.405" style="fill:none;stroke:black;stroke-width:1px;stroke-miterlimit:2;"/>
    </g>
    <g id="pants-left-leg" serif:id="pants left leg" transform="matrix(1,0,0,1,-156.164,-21.7929)">
        <path d="M425.776,172.845C388.429,175.572 352.713,166.367 315.558,170.915C306.261,172.053 304.011,176.315 296.735,180.052C290.099,183.461 282.832,185.62 275.567,187.316C249.958,193.294 223.406,191.758 197.619,196.242C193.365,196.982 189.655,200.025 185.355,200.407C177.237,201.129 168.834,199.428 160.923,201.391C155.523,207.245 155.613,227.4 159.296,232.024C161.064,232.578 183.805,232.192 185.195,232.271C205.617,233.436 225.649,234.28 246.405,233.834C267.528,233.38 288.765,233.741 309.855,232.525C317.745,232.07 317.501,231.059 325.304,230.83C336.964,230.487 349.143,230.843 360.63,232.205C366.516,232.903 372.164,235.065 378.046,235.795C385.498,236.719 393.062,236.479 400.517,237.372C417.93,239.459 436.896,239.579 454.378,237.468C463.07,236.418 470.63,233.741 479.346,233.049C488.507,232.321 496.571,228.901 505.611,228.066C509.364,227.72 513.129,227.677 516.898,227.632C516.898,227.632 493.938,188.352 496.137,155.305C493.586,150.413 494.735,148.897 497.24,142.58C484.207,145.63 474.765,134.986 467.117,121.473" style="fill:rgb(202,180,137);"/>
        <clipPath id="_clip2_rf6zc">
            <path d="M425.776,172.845C388.429,175.572 352.713,166.367 315.558,170.915C306.261,172.053 304.011,176.315 296.735,180.052C290.099,183.461 282.832,185.62 275.567,187.316C249.958,193.294 223.406,191.758 197.619,196.242C193.365,196.982 189.655,200.025 185.355,200.407C177.237,201.129 168.834,199.428 160.923,201.391C155.523,207.245 155.613,227.4 159.296,232.024C161.064,232.578 183.805,232.192 185.195,232.271C205.617,233.436 225.649,234.28 246.405,233.834C267.528,233.38 288.765,233.741 309.855,232.525C317.745,232.07 317.501,231.059 325.304,230.83C336.964,230.487 349.143,230.843 360.63,232.205C366.516,232.903 372.164,235.065 378.046,235.795C385.498,236.719 393.062,236.479 400.517,237.372C417.93,239.459 436.896,239.579 454.378,237.468C463.07,236.418 470.63,233.741 479.346,233.049C488.507,232.321 496.571,228.901 505.611,228.066C509.364,227.72 513.129,227.677 516.898,227.632C516.898,227.632 493.938,188.352 496.137,155.305C493.586,150.413 494.735,148.897 497.24,142.58C484.207,145.63 474.765,134.986 467.117,121.473"/>
        </clipPath>
        <g clip-path="url(#_clip2_rf6zc)">
            <g opacity="0.25">
                <g transform="matrix(1,0,0,1,156.164,21.7929)">
                    <path d="M336.831,147.672C336.831,147.672 318.451,146.275 314.224,152.382" style="fill:none;stroke:black;stroke-width:1px;"/>
                </g>
                <g transform="matrix(1,0,0,1,155.537,22.7323)">
                    <path d="M314.664,152.142L337.963,149.512" style="fill:none;stroke:black;stroke-width:1px;"/>
                </g>
                <g transform="matrix(1.05554,0,0,0.936425,9.98529,11.7592)">
                    <path d="M168.148,238.93C168.148,238.93 159.255,214.383 169.443,193.654" style="fill:none;stroke:black;stroke-width:1px;stroke-miterlimit:2;"/>
                </g>
                <path d="M322.368,236.881C324.692,228.094 323.131,225.253 322.95,214.926" style="fill:none;stroke:black;stroke-width:1px;stroke-miterlimit:2;"/>
                <path d="M308.17,238.768C308.17,238.768 322.148,230.43 320.544,207.708" style="fill:none;stroke:black;stroke-width:1px;stroke-miterlimit:2;"/>
                <path d="M512.939,229.098C498.989,208.611 494.942,177.356 491.706,163.366C490.683,158.941 491.522,156.318 491.2,155.52C487.551,146.489 493.496,137.329 496.341,128.988" style="fill:none;stroke:black;stroke-width:1px;stroke-miterlimit:2;"/>
                <path d="M188.144,227.286C188.144,227.286 210.307,240.335 244.035,242.443" style="fill:none;stroke:black;stroke-width:1px;stroke-miterlimit:2;"/>
                <g transform="matrix(1,0,0,1,-3.21216,3.92598)">
                    <path d="M390.17,249.664C389.599,245.952 382.746,230.819 383.603,217.97C384.459,205.122 438.994,219.684 438.138,217.685C437.281,215.686 444.99,245.952 436.996,254.232" style="fill:none;stroke:black;stroke-width:1px;stroke-miterlimit:2;"/>
                </g>
                <g transform="matrix(0.652174,0,0,0.538961,148.626,79.7898)">
                    <path d="M427.298,173.065C427.298,173.065 439.71,161.913 443.847,145.363" style="fill:none;stroke:black;stroke-width:1.67px;stroke-miterlimit:2;"/>
                </g>
            </g>
        </g>
        <path d="M425.776,172.845C388.429,175.572 352.713,166.367 315.558,170.915C306.261,172.053 304.011,176.315 296.735,180.052C290.099,183.461 282.832,185.62 275.567,187.316C249.958,193.294 223.406,191.758 197.619,196.242C193.365,196.982 189.655,200.025 185.355,200.407C177.237,201.129 168.834,199.428 160.923,201.391C155.523,207.245 155.613,227.4 159.296,232.024C161.064,232.578 183.805,232.192 185.195,232.271C205.617,233.436 225.649,234.28 246.405,233.834C267.528,233.38 288.765,233.741 309.855,232.525C317.745,232.07 317.501,231.059 325.304,230.83C336.964,230.487 349.143,230.843 360.63,232.205C366.516,232.903 372.164,235.065 378.046,235.795C385.498,236.719 393.062,236.479 400.517,237.372C417.93,239.459 436.896,239.579 454.378,237.468C463.07,236.418 470.63,233.741 479.346,233.049C488.507,232.321 496.571,228.901 505.611,228.066C509.364,227.72 513.129,227.677 516.898,227.632C516.898,227.632 493.938,188.352 496.137,155.305C493.586,150.413 494.735,148.897 497.24,142.58C484.207,145.63 474.765,134.986 467.117,121.473" style="fill:none;stroke:black;stroke-width:1px;stroke-miterlimit:2;"/>
    </g>
    <g transform="matrix(1.17863,0,0,1.08896,-246.411,-36.8991)">
        <path d="M493.72,169.061C495.423,155.555 485.377,158.405 492.576,168.146C500.634,179.049 492.477,187.608 492.805,170.205C492.862,167.208 491.012,183.953 491.662,187.816" style="fill:none;stroke:black;stroke-width:1.76px;"/>
    </g>
</svg>
</g><g transform="translate(471.8,79.1)">

<svg width="340" height="161" version="1.1" xmlns="http://www.w3.org/2000/svg" xmlns:xlink="http://www.w3.org/1999/xlink" xml:space="preserve" xmlns:serif="http://www.serif.com/" style="fill-rule:evenodd;clip-rule:evenodd;stroke-linecap:round;stroke-linejoin:round;stroke-miterlimit:1.5;">
    <g transform="matrix(1,0,0,1,-481.265,-78.6347)">
        <path id="shirt" d="M624.777,219.069C640.647,218.472 655.152,218.254 665.082,218.583C672.938,218.843 685.058,226.159 693.843,221.199C697.427,219.175 703.654,221.864 707.758,222.136C712.733,222.467 714.429,226.056 717.713,224.467C720.546,223.096 726.012,224.884 726.423,226.004C727,227.577 759.985,235.754 770.998,234.836C791.908,233.094 837.519,252.649 813.134,217.729C791.591,186.879 798.188,195.301 790.545,187.886C784.539,182.058 777.946,176.239 768.584,167.895C760.55,178.233 741.401,185.739 741.401,185.739C741.401,185.739 743.883,192.763 747.884,197.371C744.763,196.026 737.537,193.042 738.49,192.532C739.382,192.055 737.232,190.875 736.782,189.765C733.064,191.141 728.167,189.088 727.266,188.126C726.247,187.038 723.266,180.845 720.616,179.162C718.832,178.029 713.062,175.661 711.597,171.467C710.687,168.862 709.542,166.805 708.685,165.732C705.352,161.561 702.383,152.417 703.19,146.118C667.845,162.961 643.053,121.485 663.427,110.711C663.427,110.711 643.171,90.548 625.15,80.24C623.383,79.23 611.12,78.898 610.551,79.303C606.07,82.494 585.713,86.634 575.449,95.124C565.184,103.615 562.65,90.055 557.327,100.447C552.005,110.838 553.399,101.207 546.176,106.276C538.952,111.345 540.98,103.868 536.925,109.317C532.87,114.766 520.451,113.499 517.663,117.427C514.875,121.356 506.324,123.349 502.329,133.268C499.247,141.032 499.987,140.24 500.092,142.265C497.541,142.791 490.025,140.839 488.674,141.128C488.286,141.212 486.19,140.625 486.19,140.625C486.19,140.625 490.527,166.914 483.905,191.141C477.353,215.11 487.618,223.797 491.036,230.463C498.393,229.565 505.598,230.759 513.654,228.481C518.994,226.971 524.855,230.491 530.631,227.835C533.355,226.582 541.08,225.3 551.659,224.101C551.055,222.669 551.667,216.501 549.686,214.391C544.194,208.54 527.431,190.454 513.993,175.553C520.745,162.486 536.679,158.601 553.574,167.876C553.574,167.876 553.169,172.337 561.746,188.184C566.333,196.658 570.456,201.216 575.94,206.344C587.945,217.567 624.777,219.069 624.777,219.069Z" style="fill:rgb(196,196,196);"/>
        <clipPath id="_clip1_qr2ks">
            <path id="shirt1" serif:id="shirt" d="M624.777,219.069C640.647,218.472 655.152,218.254 665.082,218.583C672.938,218.843 685.058,226.159 693.843,221.199C697.427,219.175 703.654,221.864 707.758,222.136C712.733,222.467 714.429,226.056 717.713,224.467C720.546,223.096 726.012,224.884 726.423,226.004C727,227.577 759.985,235.754 770.998,234.836C791.908,233.094 837.519,252.649 813.134,217.729C791.591,186.879 798.188,195.301 790.545,187.886C784.539,182.058 777.946,176.239 768.584,167.895C760.55,178.233 741.401,185.739 741.401,185.739C741.401,185.739 743.883,192.763 747.884,197.371C744.763,196.026 737.537,193.042 738.49,192.532C739.382,192.055 737.232,190.875 736.782,189.765C733.064,191.141 728.167,189.088 727.266,188.126C726.247,187.038 723.266,180.845 720.616,179.162C718.832,178.029 713.062,175.661 711.597,171.467C710.687,168.862 709.542,166.805 708.685,165.732C705.352,161.561 702.383,152.417 703.19,146.118C667.845,162.961 643.053,121.485 663.427,110.711C663.427,110.711 643.171,90.548 625.15,80.24C623.383,79.23 611.12,78.898 610.551,79.303C606.07,82.494 585.713,86.634 575.449,95.124C565.184,103.615 562.65,90.055 557.327,100.447C552.005,110.838 553.399,101.207 546.176,106.276C538.952,111.345 540.98,103.868 536.925,109.317C532.87,114.766 520.451,113.499 517.663,117.427C514.875,121.356 506.324,123.349 502.329,133.268C499.247,141.032 499.987,140.24 500.092,142.265C497.541,142.791 490.025,140.839 488.674,141.128C488.286,141.212 486.19,140.625 486.19,140.625C486.19,140.625 490.527,166.914 483.905,191.141C477.353,215.11 487.618,223.797 491.036,230.463C498.393,229.565 505.598,230.759 513.654,228.481C518.994,226.971 524.855,230.491 530.631,227.835C533.355,226.582 541.08,225.3 551.659,224.101C551.055,222.669 551.667,216.501 549.686,214.391C544.194,208.54 527.431,190.454 513.993,175.553C520.745,162.486 536.679,158.601 553.574,167.876C553.574,167.876 553.169,172.337 561.746,188.184C566.333,196.658 570.456,201.216 575.94,206.344C587.945,217.567 624.777,219.069 624.777,219.069Z"/>
        </clipPath>
        <g clip-path="url(#_clip1_qr2ks)">
            <path d="M553.488,168.048C553.488,168.048 549.847,137.559 547.019,133.249C549.246,137.695 550.874,149.496 550.874,149.496C550.874,149.496 563.36,144.547 564.605,145.196C565.133,145.472 572.636,142.303 573.623,141.417C575.991,141.69 580.997,138.385 581.439,137.727C584.086,133.783 589.359,132.397 592.524,129.045" style="fill:none;stroke:black;stroke-width:1px;"/>
            <path d="M500.101,142.198C503.246,155.44 506.269,167.007 513.993,175.553" style="fill:none;stroke:black;stroke-width:1px;"/>
            <path d="M747.472,197.141C747.472,197.141 753.059,208.731 757.729,214.568" style="fill:none;stroke:black;stroke-width:1px;stroke-miterlimit:2;"/>
        </g>
        <path id="shirt2" serif:id="shirt" d="M624.777,219.069C640.647,218.472 655.152,218.254 665.082,218.583C672.938,218.843 685.058,226.159 693.843,221.199C697.427,219.175 703.654,221.864 707.758,222.136C712.733,222.467 714.429,226.056 717.713,224.467C720.546,223.096 726.012,224.884 726.423,226.004C727,227.577 759.985,235.754 770.998,234.836C791.908,233.094 837.519,252.649 813.134,217.729C791.591,186.879 798.188,195.301 790.545,187.886C784.539,182.058 777.946,176.239 768.584,167.895C760.55,178.233 741.401,185.739 741.401,185.739C741.401,185.739 743.883,192.763 747.884,197.371C744.763,196.026 737.537,193.042 738.49,192.532C739.382,192.055 737.232,190.875 736.782,189.765C733.064,191.141 728.167,189.088 727.266,188.126C726.247,187.038 723.266,180.845 720.616,179.162C718.832,178.029 713.062,175.661 711.597,171.467C710.687,168.862 709.542,166.805 708.685,165.732C705.352,161.561 702.383,152.417 703.19,146.118C667.845,162.961 643.053,121.485 663.427,110.711C663.427,110.711 643.171,90.548 625.15,80.24C623.383,79.23 611.12,78.898 610.551,79.303C606.07,82.494 585.713,86.634 575.449,95.124C565.184,103.615 562.65,90.055 557.327,100.447C552.005,110.838 553.399,101.207 546.176,106.276C538.952,111.345 540.98,103.868 536.925,109.317C532.87,114.766 520.451,113.499 517.663,117.427C514.875,121.356 506.324,123.349 502.329,133.268C499.247,141.032 499.987,140.24 500.092,142.265C497.541,142.791 490.025,140.839 488.674,141.128C488.286,141.212 486.19,140.625 486.19,140.625C486.19,140.625 490.527,166.914 483.905,191.141C477.353,215.11 487.618,223.797 491.036,230.463C498.393,229.565 505.598,230.759 513.654,228.481C518.994,226.971 524.855,230.491 530.631,227.835C533.355,226.582 541.08,225.3 551.659,224.101C551.055,222.669 551.667,216.501 549.686,214.391C544.194,208.54 527.431,190.454 513.993,175.553C520.745,162.486 536.679,158.601 553.574,167.876C553.574,167.876 553.169,172.337 561.746,188.184C566.333,196.658 570.456,201.216 575.94,206.344C587.945,217.567 624.777,219.069 624.777,219.069Z" style="fill:none;stroke:black;stroke-width:1px;"/>
        <g opacity="0.2">
            <path d="M659.63,107.071C655.16,112.217 643.302,122.517 658.845,141.193C673.18,158.417 692.611,155.264 703.216,151.056" style="fill:none;stroke:black;stroke-width:1px;"/>
            <path d="M644.651,115.881C644.651,115.881 625.798,112.29 596.53,119.832" style="fill:none;stroke:black;stroke-width:1px;"/>
            <path d="M568.831,144.364C568.831,144.364 566.362,157.157 595.315,177.806" style="fill:none;stroke:black;stroke-width:1px;"/>
            <g transform="matrix(1.14222,0,0,1.1172,-78.8063,-31.5726)">
                <path d="M519.076,185.503C519.076,185.503 521.93,197.178 520.494,201.487C519.057,205.797 545.057,213.122 548.074,218.15C549.811,219.359 519.076,185.503 519.076,185.503Z" style="fill:rgb(3,3,3);stroke:black;stroke-width:0.89px;"/>
            </g>
            <path d="M705.263,179.218C705.263,179.218 689.022,193.008 674.312,199.596" style="fill:none;stroke:black;stroke-width:1px;"/>
            <path d="M715.835,189.024C715.835,189.024 688.868,200.975 681.667,207.87" style="fill:none;stroke:black;stroke-width:1px;"/>
            <path d="M577.135,140.997C577.135,140.997 581.848,160.075 619.106,165.686" style="fill:none;stroke:black;stroke-width:1px;"/>
            <g transform="matrix(0.893491,0,0,0.957447,62.5696,5.92346)">
                <path d="M587.459,139.201C587.459,139.201 634.478,157.78 663.322,160.299" style="fill:none;stroke:black;stroke-width:1.08px;"/>
            </g>
            <path d="M552.98,166.803L550.626,149.623C550.626,149.623 561.022,143.749 565.484,144.491C567.278,144.79 576.279,140.758 576.279,140.758C576.279,140.758 565.135,147.924 561.252,152.265C557.535,156.421 552.98,166.803 552.98,166.803Z" style="fill:rgb(3,3,3);stroke:black;stroke-width:1px;"/>
            <path d="M504.193,157.023C504.193,157.023 522.864,130.42 550.363,145.703" style="fill:none;stroke:black;stroke-width:1px;stroke-miterlimit:2;"/>
            <path d="M747.735,197.387C747.735,197.387 757.898,218.755 768.191,226.572" style="fill:none;stroke:black;stroke-width:1px;stroke-miterlimit:2;"/>
            <g transform="matrix(0.976183,0,0,1.10043,22.9524,-11.6099)">
                <path d="M750.353,202.482C750.353,202.482 768.171,204.162 788.647,183.055" style="fill:none;stroke:black;stroke-width:0.96px;stroke-miterlimit:2;"/>
            </g>
            <path d="M515.439,227.69C514.462,225.735 507.23,204.349 510.553,193.814C513.886,183.248 513.366,181.82 512.388,174.003" style="fill:none;stroke:black;stroke-width:1px;stroke-miterlimit:2;"/>
        </g>
        <g id="ltt-logo" serif:id="ltt logo" transform="matrix(0.766169,0.0734571,-0.0734571,0.766169,173.642,-2.09732)">
            <path d="M663.095,171.742L661.009,176.024L663.81,177.174" style="fill:none;stroke:black;stroke-width:1.3px;stroke-linecap:square;stroke-linejoin:miter;stroke-miterlimit:2;"/>
            <path d="M664.472,172.369L668.033,173.71" style="fill:none;stroke:black;stroke-width:1.3px;stroke-linecap:square;stroke-linejoin:miter;stroke-miterlimit:2;"/>
            <g transform="matrix(1,0,0,1,0.246779,0.0987117)">
                <path d="M663.771,175.548L664.932,172.715" style="fill:none;stroke:black;stroke-width:1.3px;stroke-linecap:square;stroke-linejoin:miter;stroke-miterlimit:2;"/>
            </g>
            <g transform="matrix(1,0,0,1,0.489959,1.0902)">
                <path d="M665.119,176.664L665.771,175.265" style="fill:none;stroke:black;stroke-width:1.3px;stroke-linecap:square;stroke-linejoin:miter;stroke-miterlimit:2;"/>
            </g>
            <g transform="matrix(1,0,0,1,-0.00796884,0.576846)">
                <path d="M665.591,175.044L667.449,175.726" style="fill:none;stroke:black;stroke-width:1.3px;stroke-linecap:square;stroke-linejoin:miter;stroke-miterlimit:2;"/>
            </g>
        </g>
    </g>
</svg>
</g><g transform="translate(671.5,36.3)">

<svg width="85" height="79" version="1.1" xmlns="http://www.w3.org/2000/svg" xmlns:xlink="http://www.w3.org/1999/xlink" xml:space="preserve" xmlns:serif="http://www.serif.com/" style="fill-rule:evenodd;clip-rule:evenodd;stroke-linejoin:round;stroke-miterlimit:2;">
    <g id="hair" transform="matrix(1,0,0,1,-681.512,-36.3194)">
        <path d="M681.512,77.471C681.512,77.471 692.008,63.918 703.261,56.817C714.515,49.715 706.855,62.574 711.957,64.536C717.059,66.499 730.208,67.873 734.918,77.096C739.628,86.32 736.292,80.629 734.329,96.132C732.711,108.919 733.174,122.425 744.371,108.954C746.75,106.093 756.679,95.319 760.961,91.679C763.848,89.226 764.204,83.143 764.159,80.823C764.087,77.085 762.483,71.52 758.03,65.223C755.345,61.427 751.862,62.677 748.895,57.15C745.524,50.87 736.013,51.313 729.741,49.018C725.908,47.615 721.182,41.778 717.773,41.16C709.428,39.648 703.487,45.443 697.944,49.698C687.222,57.929 683.251,51.746 681.512,77.471Z" style="fill:rgb(76,57,48);"/>
        <clipPath id="_clip1_3at9u">
            <path d="M681.512,77.471C681.512,77.471 692.008,63.918 703.261,56.817C714.515,49.715 706.855,62.574 711.957,64.536C717.059,66.499 730.208,67.873 734.918,77.096C739.628,86.32 736.292,80.629 734.329,96.132C732.711,108.919 733.174,122.425 744.371,108.954C746.75,106.093 756.679,95.319 760.961,91.679C763.848,89.226 764.204,83.143 764.159,80.823C764.087,77.085 762.483,71.52 758.03,65.223C755.345,61.427 751.862,62.677 748.895,57.15C745.524,50.87 736.013,51.313 729.741,49.018C725.908,47.615 721.182,41.778 717.773,41.16C709.428,39.648 703.487,45.443 697.944,49.698C687.222,57.929 683.251,51.746 681.512,77.471Z"/>
        </clipPath>
        <g clip-path="url(#_clip1_3at9u)">
            <g transform="matrix(1.15937,0.561945,-0.436165,0.899867,-74.5387,-402.442)">
                <ellipse cx="740.914" cy="84.881" rx="16.333" ry="10.414" style="fill:rgb(68,51,43);"/>
            </g>
            <g transform="matrix(0.712632,-0.230096,0.361814,1.12058,183.564,155.566)">
                <ellipse cx="715.886" cy="70.753" rx="12.484" ry="11.867" style="fill:rgb(68,51,43);"/>
            </g>
            <g transform="matrix(0.832879,0.553455,-0.63328,0.953005,165.756,-384.478)">
                <ellipse cx="693.784" cy="73.511" rx="9.892" ry="14.399" style="fill:rgb(68,51,43);"/>
            </g>
        </g>
        <path d="M759.678,67.726C759.121,67.792 756.52,62.086 755.105,59.381C753.538,56.386 749.737,54.263 748.239,53.308C745.386,51.488 744.038,48.043 742.072,45.995C738.548,42.326 732.965,44.705 731.777,40.54C730.995,37.799 726.9,39.472 725.022,39.816C722.255,40.322 719.583,35.689 715.046,36.392C702.98,38.262 701.604,41.688 698.309,41.605C693.253,41.479 700.23,45.584 694.194,51.071C688.158,56.559 686.202,69.379 686.1,65.476C686.079,64.687 696.31,55.661 706.955,57.699C724.693,61.094 739.198,62.011 746.421,71.775C753.422,81.239 753.352,94.341 751.263,99.909C749.781,103.86 757.003,91.666 761.057,93.344C763.158,94.214 767.089,88.154 765.805,85.642C763.398,80.932 761.583,76.517 759.678,67.726Z" style="fill:rgb(76,57,48);fill-opacity:0.89;"/>
    </g>
</svg>
</g><g transform="translate(649.5,86.3)">

<svg width="79" height="59" version="1.1" xmlns="http://www.w3.org/2000/svg" xmlns:xlink="http://www.w3.org/1999/xlink" xml:space="preserve" xmlns:serif="http://www.serif.com/" style="fill-rule:evenodd;clip-rule:evenodd;stroke-linejoin:round;stroke-miterlimit:2;">
    <g id="bead-bigger" serif:id="bead bigger" transform="matrix(1,0,0,1,-659.461,-86.2829)">
        <path id="beard" d="M676.112,86.283C676.112,86.283 669.922,100.551 668.45,110.184C667.632,115.532 666.781,120.327 667.26,123.851C667.635,126.616 666.775,130.526 668.146,130.461C669.939,130.376 674.143,124.812 675.281,124.984C675.959,125.086 676.416,124.822 676.892,126.266C677.216,127.252 674.359,132.417 675.664,133.849C677.655,136.033 684.183,132.285 691.457,130.88C698.03,129.61 722.096,117.195 728.489,109.04C732.564,103.842 736.738,100.301 736.738,100.301L738.128,101.181C738.128,101.181 725.89,121.393 717.714,129.38C713.321,133.673 704.582,139.749 691.327,143.505C680.721,146.511 672.939,145.134 666.215,139.331C663.4,136.901 659.979,134.906 659.587,131.8C659.2,128.734 659.802,124.581 660.072,121.606C660.527,116.586 661.211,112.866 663.157,108.407C670.962,90.532 676.112,86.283 676.112,86.283Z" style="fill:rgb(44,25,17);fill-opacity:0.83;"/>
        <clipPath id="_clip1_cu3w0">
            <path id="beard1" serif:id="beard" d="M676.112,86.283C676.112,86.283 669.922,100.551 668.45,110.184C667.632,115.532 666.781,120.327 667.26,123.851C667.635,126.616 666.775,130.526 668.146,130.461C669.939,130.376 674.143,124.812 675.281,124.984C675.959,125.086 676.416,124.822 676.892,126.266C677.216,127.252 674.359,132.417 675.664,133.849C677.655,136.033 684.183,132.285 691.457,130.88C698.03,129.61 722.096,117.195 728.489,109.04C732.564,103.842 736.738,100.301 736.738,100.301L738.128,101.181C738.128,101.181 725.89,121.393 717.714,129.38C713.321,133.673 704.582,139.749 691.327,143.505C680.721,146.511 672.939,145.134 666.215,139.331C663.4,136.901 659.979,134.906 659.587,131.8C659.2,128.734 659.802,124.581 660.072,121.606C660.527,116.586 661.211,112.866 663.157,108.407C670.962,90.532 676.112,86.283 676.112,86.283Z"/>
        </clipPath>
        <g clip-path="url(#_clip1_cu3w0)">
            <g transform="matrix(0.80269,-0.835715,0.740211,0.71096,642.119,123.938)">
                <path d="M43.959,-0.184C59.392,-0.184 66.374,12.297 66.374,25.155C66.374,38.013 67.809,57.355 45.172,54.883C29.81,53.206 5.453,43.741 6.416,25.25C7.045,13.176 28.525,-0.184 43.959,-0.184Z" style="fill:rgb(44,25,17);fill-opacity:0.64;"/>
            </g>
        </g>
        <path id="moustache" d="M666.769,120.358C669.11,118.474 672.189,116.501 674.472,116.723C679.425,117.203 682.14,117.665 686.206,122.096C688.767,124.887 687.527,127.688 687.444,132.206C687.429,133.006 691.255,131.737 691.073,131.042C690.186,127.656 693.577,120.718 685.856,115.52C682.166,113.036 679.837,113.031 678.844,112.937C674.896,112.562 670.874,112.379 667.486,114.284C666.341,114.928 666.085,120.909 666.769,120.358Z" style="fill:rgb(44,25,17);fill-opacity:0.83;"/>
    </g>
</svg>
</g><g transform="translate(539.4,205.8)">

<svg width="88" height="28" version="1.1" xmlns="http://www.w3.org/2000/svg" xmlns:xlink="http://www.w3.org/1999/xlink" xml:space="preserve" xmlns:serif="http://www.serif.com/" style="fill-rule:evenodd;clip-rule:evenodd;stroke-linecap:round;stroke-linejoin:round;stroke-miterlimit:1.5;">
    <g id="right-hand" serif:id="right hand" transform="matrix(1,0,0,1,-532.502,-192.932)">
        <path d="M558.92,193.432C561.628,195.442 566.812,198.547 573.334,199.022C585.499,199.91 590.695,196.995 598.805,201.303C606.915,205.612 614.685,207.643 617.346,210.938C620.007,214.233 621.274,220.949 612.53,220.316C603.786,219.682 597.577,218.668 589.467,218.542C581.356,218.415 568.898,217.397 555.973,216.764C543.047,216.13 541.146,215.243 537.217,212.582C533.289,209.921 534.799,211.312 534.196,205.338C533.923,202.626 533.17,201.884 533.002,201.703" style="fill:rgb(246,185,133);stroke:black;stroke-width:1px;"/>
    </g>
</svg>
</g><g transform="translate(695.2,84)">

<svg width="54" height="62" version="1.1" xmlns="http://www.w3.org/2000/svg" xmlns:xlink="http://www.w3.org/1999/xlink" xml:space="preserve" xmlns:serif="http://www.serif.com/" style="fill-rule:evenodd;clip-rule:evenodd;stroke-linecap:round;stroke-linejoin:round;stroke-miterlimit:1.5;">
    <g id="left-hand" serif:id="left hand" transform="matrix(1,0,0,1,-688.371,-71.0971)">
        <path d="M694.742,132.561C692.884,130.793 685.171,126.708 691.034,116.155C697.731,104.102 702.406,102.244 707.823,95.751C712.084,90.645 719.397,81.529 722.766,76.212C725.579,71.77 736.329,70.493 739.088,72.562C741.926,74.691 742.839,81.382 731.18,98.819C724.034,109.507 712.831,118.791 712.831,118.791C712.831,118.791 712.326,120.396 716.021,126.194" style="fill:rgb(246,185,133);stroke:black;stroke-width:1px;"/>
    </g>
</svg>
</g></svg>