<?xml version="1.0" encoding="UTF-8" standalone="no"?>
<!DOCTYPE svg PUBLIC "-//W3C//DTD SVG 1.1//EN" "http://www.w3.org/Graphics/SVG/1.1/DTD/svg11.dtd">
<svg width="100%" height="100%" viewBox="0 0 100 100" version="1.1" xmlns="http://www.w3.org/2000/svg" xmlns:xlink="http://www.w3.org/1999/xlink" xml:space="preserve" xmlns:serif="http://www.serif.com/" style="fill-rule:evenodd;clip-rule:evenodd;stroke-linejoin:round;stroke-miterlimit:2;">
    <g transform="matrix(1,0,0,1,5.22786,64.2283)">
        <g transform="matrix(120,0,0,120,11.0821,28.1617)">
            <path d="M0.509,-0.606L0.509,-0.72L0.068,-0.72L0.068,-0.607L0.366,-0.607L0.158,-0.429L0.213,-0.333C0.232,-0.344 0.254,-0.35 0.276,-0.35C0.348,-0.35 0.399,-0.296 0.399,-0.225C0.399,-0.154 0.346,-0.101 0.276,-0.1C0.223,-0.1 0.173,-0.132 0.157,-0.189L0.04,-0.158C0.071,-0.053 0.168,0.013 0.276,0.013C0.411,0.013 0.521,-0.088 0.521,-0.225C0.521,-0.334 0.458,-0.428 0.347,-0.45L0.509,-0.606Z" style="fill:rgb(213,94,0);fill-rule:nonzero;"/>
        </g>
    </g>
</svg>
